<svg xmlns="http://www.w3.org/2000/svg" xmlns:xlink="http://www.w3.org/1999/xlink" width="500" zoomAndPan="magnify" viewBox="0 0 375 374.999991" height="500" preserveAspectRatio="xMidYMid meet" version="1.0"><defs><g/><clipPath id="8237687286"><path d="M 14.144531 227.371094 L 176.636719 227.371094 L 176.636719 245.4375 L 14.144531 245.4375 Z M 14.144531 227.371094 " clip-rule="nonzero"/></clipPath><clipPath id="aef083dafe"><path d="M 197.785156 124.671875 L 360.277344 124.671875 L 360.277344 142.742188 L 197.785156 142.742188 Z M 197.785156 124.671875 " clip-rule="nonzero"/></clipPath></defs><g clip-path="url(#8237687286)"><path fill="#000000" d="M 14.144531 227.371094 L 176.628906 227.371094 L 176.628906 245.4375 L 14.144531 245.4375 Z M 14.144531 227.371094 " fill-opacity="1" fill-rule="nonzero"/></g><g clip-path="url(#aef083dafe)"><path fill="#000000" d="M 197.785156 124.671875 L 360.269531 124.671875 L 360.269531 142.742188 L 197.785156 142.742188 Z M 197.785156 124.671875 " fill-opacity="1" fill-rule="nonzero"/></g><g fill="#000000" fill-opacity="1"><g transform="translate(10.861211, 195.099041)"><g><path d="M 29.171875 0 L 0.9375 -73.453125 L 18.890625 -73.453125 L 28.640625 -47.328125 L 37.46875 -24.03125 L 55.9375 -73.453125 L 73.765625 -73.453125 L 45.546875 0 Z M 29.171875 0 "/></g></g></g><g fill="#000000" fill-opacity="1"><g transform="translate(107.292942, 195.099041)"><g><path d="M 28.015625 0 L 28.015625 -25.703125 L 0.9375 -73.453125 L 19.9375 -73.453125 L 29.0625 -56.453125 L 36.40625 -43.125 L 43.65625 -56.453125 L 52.671875 -73.453125 L 71.671875 -73.453125 L 44.703125 -25.921875 L 44.703125 0 Z M 28.015625 0 "/></g></g></g><g fill="#000000" fill-opacity="1"><g transform="translate(208.09981, 244.959995)"><g><path d="M 8.8125 0 L 8.8125 -73.453125 L 40.1875 -73.453125 C 45.789062 -73.453125 50.65625 -72.4375 54.78125 -70.40625 C 58.90625 -68.382812 62.085938 -65.484375 64.328125 -61.703125 C 66.566406 -57.921875 67.6875 -53.410156 67.6875 -48.171875 C 67.6875 -42.785156 66.460938 -38.148438 64.015625 -34.265625 C 61.566406 -30.378906 58.140625 -27.457031 53.734375 -25.5 L 68.9375 0 L 49.640625 0 L 36.515625 -22.875 L 25.5 -22.875 L 25.5 0 Z M 25.296875 -36.9375 L 37.984375 -36.9375 C 42.109375 -36.9375 45.273438 -37.894531 47.484375 -39.8125 C 49.691406 -41.738281 50.796875 -44.488281 50.796875 -48.0625 C 50.796875 -51.625 49.691406 -54.367188 47.484375 -56.296875 C 45.273438 -58.222656 42.109375 -59.1875 37.984375 -59.1875 L 25.296875 -59.1875 Z M 25.296875 -36.9375 "/></g></g></g><g fill="#000000" fill-opacity="1"><g transform="translate(303.692119, 244.959995)"><g><path d="M 8.8125 0 L 8.8125 -73.453125 L 25.5 -73.453125 L 25.5 -15.640625 L 57.609375 -15.640625 L 57.609375 0 Z M 8.8125 0 "/></g></g></g></svg>